<?xml version="1.0" encoding="UTF-8"?>
<svg id="Layer_2" data-name="Layer 2" xmlns="http://www.w3.org/2000/svg" xmlns:xlink="http://www.w3.org/1999/xlink" viewBox="0 0 716.79 119.27">
  <defs>
    <style>
      .cls-1 {
        fill: url(#linear-gradient-2);
      }

      .cls-2 {
        fill: #260652;
        stroke: #231f20;
        stroke-miterlimit: 10;
      }

      .cls-3 {
        fill: url(#linear-gradient-6);
      }

      .cls-4 {
        fill: url(#linear-gradient-11);
      }

      .cls-5 {
        fill: url(#linear-gradient-10);
      }

      .cls-6 {
        fill: url(#linear-gradient-5);
      }

      .cls-7 {
        fill: url(#linear-gradient-7);
      }

      .cls-8 {
        fill: url(#linear-gradient-9);
      }

      .cls-9 {
        fill: url(#linear-gradient-3);
      }

      .cls-10 {
        fill: url(#linear-gradient);
      }

      .cls-11 {
        fill: url(#linear-gradient-4);
      }

      .cls-12 {
        fill: url(#linear-gradient-8);
      }

      .cls-13 {
        fill: url(#linear-gradient-12);
      }

      .cls-14 {
        fill: url(#linear-gradient-13);
      }
    </style>
    <linearGradient id="linear-gradient" x1="88.91" y1="39.97" x2="160.83" y2="39.97" gradientUnits="userSpaceOnUse">
      <stop offset=".55" stop-color="#ff8c00"/>
      <stop offset="1" stop-color="#ff2360"/>
    </linearGradient>
    <linearGradient id="linear-gradient-2" x1="309.63" y1="108.78" x2="328.75" y2="108.78" xlink:href="#linear-gradient"/>
    <linearGradient id="linear-gradient-3" x1="338.44" y1="108.78" x2="356.75" y2="108.78" xlink:href="#linear-gradient"/>
    <linearGradient id="linear-gradient-4" x1="366.54" y1="108.78" x2="387.59" y2="108.78" xlink:href="#linear-gradient"/>
    <linearGradient id="linear-gradient-5" x1="397.81" y1="108.83" x2="417.86" y2="108.83" xlink:href="#linear-gradient"/>
    <linearGradient id="linear-gradient-6" x1="428.65" y1="108.78" x2="449.85" y2="108.78" xlink:href="#linear-gradient"/>
    <linearGradient id="linear-gradient-7" x1="460.05" y1="108.78" x2="485" y2="108.78" xlink:href="#linear-gradient"/>
    <linearGradient id="linear-gradient-8" x1="495.22" y1="108.78" x2="512.57" y2="108.78" xlink:href="#linear-gradient"/>
    <linearGradient id="linear-gradient-9" x1="521.87" y1="108.78" x2="546.82" y2="108.78" xlink:href="#linear-gradient"/>
    <linearGradient id="linear-gradient-10" x1="556.45" y1="108.78" x2="578.76" y2="108.78" xlink:href="#linear-gradient"/>
    <linearGradient id="linear-gradient-11" x1="589.57" y1="108.78" x2="593.15" y2="108.78" xlink:href="#linear-gradient"/>
    <linearGradient id="linear-gradient-12" x1="604.22" y1="108.78" x2="622.53" y2="108.78" xlink:href="#linear-gradient"/>
    <linearGradient id="linear-gradient-13" x1="632.61" y1="108.78" x2="654.63" y2="108.78" xlink:href="#linear-gradient"/>
  </defs>
  <g id="Layer_1-2" data-name="Layer 1">
    <polygon class="cls-2" points="51.71 25.35 38.32 32.4 82.71 116.74 99.81 116.74 51.71 25.35"/>
    <path class="cls-10" d="m123.54,21.32h-34.62l7.97,15.13h26.66c12.22,0,22.16,9.94,22.16,22.16h15.13c0-20.57-16.73-37.3-37.3-37.3Z"/>
    <polygon class="cls-2" points="79.46 21.32 .83 21.32 8.79 36.45 87.42 36.45 79.46 21.32"/>
    <path class="cls-2" d="m125.89.5H51.4l48.91,92.91h17.1L76.46,15.63h49.43c23.7,0,42.99,19.28,42.99,42.99s-19.28,42.98-42.99,42.98h-21.27l7.97,15.13h13.3c32.05,0,58.12-26.07,58.12-58.12S157.93.5,125.89.5Z"/>
    <path class="cls-2" d="m213.24,75.86V6.81h39.99c4.88,0,9.37.82,13.49,2.47,4.11,1.65,7.66,3.96,10.64,6.94,2.98,2.97,5.3,6.54,6.98,10.68,1.68,4.15,2.52,8.72,2.52,13.73s-.84,9.66-2.52,13.96c-1.68,4.31-4.01,8.03-6.98,11.16-2.98,3.13-6.52,5.6-10.64,7.41-4.12,1.8-8.61,2.71-13.49,2.71h-39.99Zm39.99-12.06c3.1,0,5.97-.57,8.6-1.71,2.63-1.14,4.91-2.71,6.84-4.7,1.93-1.99,3.43-4.38,4.51-7.17,1.08-2.79,1.61-5.79,1.61-9.02s-.54-6.22-1.61-8.98c-1.08-2.75-2.58-5.11-4.51-7.08-1.93-1.96-4.21-3.5-6.84-4.61-2.63-1.11-5.49-1.66-8.6-1.66h-28.02v44.93h28.02Z"/>
    <path class="cls-2" d="m359.52,75.86l-10.35-17.38h-32.68l5.7-9.78h21.18l-15.39-25.84-31.34,53h-13.78l39.71-66.11c.7-1.2,1.52-2.15,2.47-2.85.95-.7,2.09-1.05,3.42-1.05s2.45.35,3.37,1.05c.91.7,1.72,1.65,2.42,2.85l39.8,66.11h-14.53Z"/>
    <path class="cls-2" d="m381.46,75.86V6.81h39.99c4.88,0,9.37.82,13.49,2.47,4.12,1.65,7.66,3.96,10.64,6.94,2.97,2.97,5.3,6.54,6.98,10.68,1.68,4.15,2.51,8.72,2.51,13.73s-.84,9.66-2.51,13.96c-1.68,4.31-4.01,8.03-6.98,11.16-2.98,3.13-6.52,5.6-10.64,7.41-4.12,1.8-8.61,2.71-13.49,2.71h-39.99Zm39.99-12.06c3.1,0,5.97-.57,8.59-1.71,2.63-1.14,4.91-2.71,6.84-4.7,1.93-1.99,3.43-4.38,4.51-7.17,1.08-2.79,1.61-5.79,1.61-9.02s-.54-6.22-1.61-8.98c-1.08-2.75-2.58-5.11-4.51-7.08-1.93-1.96-4.21-3.5-6.84-4.61-2.63-1.11-5.49-1.66-8.59-1.66h-28.02v44.93h28.02Z"/>
    <path class="cls-2" d="m464.95,76.15V6.81h12.06v69.34h-12.06Zm55.57,0v-30.02h-34.77v-10.73h34.77V6.81h12.06v69.34h-12.06Z"/>
    <path class="cls-2" d="m545.22,75.86V6.81h12.06v69.05h-12.06Z"/>
    <path class="cls-2" d="m601.45,75.86c-4.82,0-9.26-.9-13.35-2.71-4.09-1.81-7.63-4.28-10.64-7.41-3.01-3.14-5.35-6.85-7.03-11.16-1.68-4.3-2.52-8.96-2.52-13.96s.84-9.69,2.52-13.87c1.68-4.18,4.02-7.74,7.03-10.68,3.01-2.95,6.55-5.23,10.64-6.84,4.09-1.61,8.53-2.42,13.35-2.42h37.42v12.06h-37.42c-3.11,0-5.97.55-8.6,1.66-2.63,1.11-4.89,2.64-6.8,4.61-1.9,1.96-3.39,4.31-4.46,7.03-1.08,2.72-1.61,5.73-1.61,9.02s.54,6.24,1.61,9.02c1.08,2.79,2.56,5.18,4.46,7.17,1.9,1.99,4.17,3.56,6.8,4.7,2.63,1.14,5.49,1.71,8.6,1.71h37.42v12.06h-37.42Z"/>
    <path class="cls-2" d="m648.66,76.15V6.81h12.07v69.34h-12.07Zm55.57,0v-30.02h-34.76v-10.73h34.76V6.81h12.06v69.34h-12.06Z"/>
    <path class="cls-1" d="m317.4,119.02v-16.9h-7.77v-3.58h19.12v3.58h-7.77v16.9h-3.58Z"/>
    <path class="cls-9" d="m338.44,119.02v-20.47h18.28v3.58h-14.73v13.32h14.76v3.58h-18.31Zm6.17-8.9v-3.01h11.35v3.01h-11.35Z"/>
    <path class="cls-11" d="m376.49,119.02c-1.43,0-2.75-.27-3.96-.8-1.21-.54-2.26-1.27-3.15-2.2-.89-.93-1.58-2.03-2.08-3.31-.5-1.28-.75-2.66-.75-4.14s.25-2.87.75-4.11c.5-1.24,1.19-2.3,2.08-3.17.89-.87,1.94-1.55,3.15-2.03,1.21-.48,2.53-.72,3.96-.72h11.1v3.58h-11.1c-.92,0-1.77.17-2.55.49-.78.33-1.45.79-2.01,1.37-.56.58-1,1.28-1.32,2.08-.32.81-.48,1.7-.48,2.68s.16,1.85.48,2.67c.32.83.76,1.54,1.32,2.13.56.59,1.23,1.06,2.01,1.39.78.34,1.63.51,2.55.51h11.1v3.58h-11.1Z"/>
    <path class="cls-6" d="m397.81,119.1v-20.56h3.58v20.56h-3.58Zm16.48,0v-8.9h-10.31v-3.19h10.31v-8.48h3.57v20.56h-3.57Z"/>
    <path class="cls-3" d="m432.05,104.04v14.98h-3.41v-18.59c0-.66.17-1.18.49-1.56.33-.38.78-.58,1.34-.58.26,0,.52.06.76.17.24.11.5.3.76.56l14.45,14.33v-14.98h3.41v18.76c0,.68-.16,1.2-.49,1.58-.33.38-.76.56-1.28.56-.58,0-1.12-.25-1.63-.76l-14.4-14.48Z"/>
    <path class="cls-7" d="m469.99,119.02c-1.43,0-2.75-.27-3.96-.8-1.21-.54-2.26-1.27-3.15-2.2-.89-.93-1.59-2.03-2.08-3.31-.5-1.28-.75-2.66-.75-4.14s.25-2.87.75-4.11c.5-1.24,1.19-2.3,2.08-3.17.89-.87,1.94-1.55,3.15-2.03,1.21-.48,2.53-.72,3.96-.72h4.98c1.48,0,2.84.24,4.07.73,1.23.49,2.29,1.17,3.17,2.05.88.89,1.57,1.94,2.05,3.17.49,1.23.73,2.59.73,4.07s-.25,2.86-.74,4.14c-.5,1.27-1.2,2.38-2.09,3.31-.89.93-1.95,1.66-3.17,2.2-1.22.53-2.56.8-4.03.8h-4.98Zm4.98-3.58c.94,0,1.8-.17,2.59-.51.79-.33,1.47-.8,2.05-1.39.57-.59,1.02-1.3,1.34-2.13.32-.82.48-1.72.48-2.67s-.16-1.85-.48-2.66c-.32-.82-.77-1.52-1.34-2.1-.58-.58-1.26-1.04-2.05-1.37-.78-.33-1.65-.49-2.59-.49h-4.98c-.92,0-1.77.17-2.55.49-.78.33-1.45.79-2.01,1.37-.56.58-1,1.28-1.32,2.08-.31.81-.48,1.7-.48,2.68s.16,1.85.48,2.67c.32.83.76,1.54,1.32,2.13.57.59,1.24,1.06,2.01,1.39.78.34,1.63.51,2.55.51h4.98Z"/>
    <path class="cls-12" d="m495.22,119.02v-20.47h3.58v16.9h13.77v3.58h-17.35Z"/>
    <path class="cls-8" d="m531.81,119.02c-1.43,0-2.75-.27-3.96-.8-1.21-.54-2.27-1.27-3.16-2.2-.89-.93-1.59-2.03-2.08-3.31-.5-1.28-.75-2.66-.75-4.14s.25-2.87.75-4.11c.49-1.24,1.19-2.3,2.08-3.17.89-.87,1.94-1.55,3.16-2.03,1.21-.48,2.53-.72,3.96-.72h4.99c1.48,0,2.84.24,4.07.73,1.23.49,2.28,1.17,3.17,2.05.88.89,1.56,1.94,2.06,3.17.48,1.23.73,2.59.73,4.07s-.25,2.86-.75,4.14c-.5,1.27-1.19,2.38-2.08,3.31-.89.93-1.94,1.66-3.17,2.2-1.21.53-2.56.8-4.02.8h-4.99Zm4.99-3.58c.94,0,1.8-.17,2.59-.51.79-.33,1.47-.8,2.05-1.39.57-.59,1.02-1.3,1.34-2.13.32-.82.48-1.72.48-2.67s-.16-1.85-.48-2.66c-.32-.82-.76-1.52-1.34-2.1-.57-.58-1.25-1.04-2.05-1.37-.78-.33-1.65-.49-2.59-.49h-4.99c-.92,0-1.77.17-2.55.49-.78.33-1.45.79-2.01,1.37-.56.58-1.01,1.28-1.32,2.08-.32.81-.48,1.7-.48,2.68s.16,1.85.48,2.67c.32.83.76,1.54,1.32,2.13.56.59,1.23,1.06,2.01,1.39.78.34,1.63.51,2.55.51h4.99Z"/>
    <path class="cls-5" d="m566.4,119.02c-1.43,0-2.75-.27-3.96-.8-1.21-.54-2.26-1.27-3.16-2.2-.89-.93-1.59-2.03-2.08-3.31-.5-1.28-.75-2.66-.75-4.14s.25-2.87.75-4.11c.5-1.24,1.2-2.3,2.08-3.17.9-.87,1.95-1.55,3.16-2.03,1.21-.48,2.53-.72,3.96-.72h11.09v3.58h-11.09c-.92,0-1.77.17-2.55.49-.78.33-1.45.79-2.01,1.37-.56.58-1,1.28-1.32,2.08-.32.81-.47,1.7-.47,2.68s.16,1.85.47,2.67c.32.83.76,1.54,1.32,2.13.56.59,1.24,1.06,2.01,1.39.78.34,1.63.51,2.55.51h8.76v-5.32h-9.24v-3.01h12.84v11.91h-12.36Z"/>
    <path class="cls-4" d="m589.57,119.02v-20.47h3.58v20.47h-3.58Z"/>
    <path class="cls-13" d="m604.22,119.02v-20.47h18.28v3.58h-14.73v13.32h14.76v3.58h-18.31Zm6.17-8.9v-3.01h11.35v3.01h-11.35Z"/>
    <path class="cls-14" d="m632.92,119.02v-3.58h15.35c.96,0,1.69-.24,2.21-.73.51-.49.78-1.14.78-1.94,0-.88-.26-1.54-.78-1.98-.52-.44-1.25-.66-2.21-.66h-9.41c-.96,0-1.82-.14-2.61-.44-.78-.29-1.43-.69-1.97-1.21-.54-.52-.95-1.13-1.24-1.85-.29-.71-.44-1.49-.44-2.34s.13-1.59.41-2.3c.27-.7.68-1.31,1.21-1.82.53-.5,1.2-.9,1.98-1.2.79-.29,1.69-.43,2.7-.43h14.7v3.58h-14.7c-.83,0-1.46.22-1.91.66-.45.44-.68,1.06-.68,1.85s.23,1.4.69,1.83c.46.44,1.08.65,1.87.65h9.38c2.09,0,3.67.49,4.75,1.47,1.08.98,1.62,2.46,1.62,4.45,0,.86-.14,1.66-.4,2.39-.26.73-.66,1.37-1.18,1.9-.52.54-1.19.96-1.98,1.26-.8.3-1.73.45-2.8.45h-15.35Z"/>
  </g>
</svg>